<mxfile host="app.diagrams.net" agent="Mozilla/5.0 (Windows NT 10.0; Win64; x64) AppleWebKit/537.36 (KHTML, like Gecko) Chrome/131.0.0.0 Safari/537.36" version="25.0.3">
  <diagram id="C5RBs43oDa-KdzZeNtuy" name="Page-1">
    <mxGraphModel dx="1290" dy="530" grid="1" gridSize="10" guides="1" tooltips="1" connect="1" arrows="1" fold="1" page="1" pageScale="1" pageWidth="827" pageHeight="1169" math="0" shadow="0">
      <root>
        <mxCell id="WIyWlLk6GJQsqaUBKTNV-0" />
        <mxCell id="WIyWlLk6GJQsqaUBKTNV-1" parent="WIyWlLk6GJQsqaUBKTNV-0" />
        <mxCell id="tDFteGGjF2vSCOtB_rUJ-5" style="edgeStyle=orthogonalEdgeStyle;rounded=0;orthogonalLoop=1;jettySize=auto;html=1;exitX=0.5;exitY=1;exitDx=0;exitDy=0;exitPerimeter=0;" edge="1" parent="WIyWlLk6GJQsqaUBKTNV-1" source="tDFteGGjF2vSCOtB_rUJ-0" target="tDFteGGjF2vSCOtB_rUJ-1">
          <mxGeometry relative="1" as="geometry" />
        </mxCell>
        <mxCell id="tDFteGGjF2vSCOtB_rUJ-0" value="START" style="strokeWidth=2;html=1;shape=mxgraph.flowchart.start_1;whiteSpace=wrap;" vertex="1" parent="WIyWlLk6GJQsqaUBKTNV-1">
          <mxGeometry x="360" y="60" width="100" height="60" as="geometry" />
        </mxCell>
        <mxCell id="tDFteGGjF2vSCOtB_rUJ-6" style="edgeStyle=orthogonalEdgeStyle;rounded=0;orthogonalLoop=1;jettySize=auto;html=1;exitX=0.5;exitY=1;exitDx=0;exitDy=0;" edge="1" parent="WIyWlLk6GJQsqaUBKTNV-1" source="tDFteGGjF2vSCOtB_rUJ-1" target="tDFteGGjF2vSCOtB_rUJ-2">
          <mxGeometry relative="1" as="geometry" />
        </mxCell>
        <mxCell id="tDFteGGjF2vSCOtB_rUJ-1" value="READ A , B" style="shape=parallelogram;html=1;strokeWidth=2;perimeter=parallelogramPerimeter;whiteSpace=wrap;rounded=1;arcSize=12;size=0.23;" vertex="1" parent="WIyWlLk6GJQsqaUBKTNV-1">
          <mxGeometry x="295" y="150" width="230" height="60" as="geometry" />
        </mxCell>
        <mxCell id="tDFteGGjF2vSCOtB_rUJ-7" style="edgeStyle=orthogonalEdgeStyle;rounded=0;orthogonalLoop=1;jettySize=auto;html=1;exitX=0.5;exitY=1;exitDx=0;exitDy=0;entryX=0.5;entryY=0;entryDx=0;entryDy=0;" edge="1" parent="WIyWlLk6GJQsqaUBKTNV-1" source="tDFteGGjF2vSCOtB_rUJ-2" target="tDFteGGjF2vSCOtB_rUJ-3">
          <mxGeometry relative="1" as="geometry" />
        </mxCell>
        <mxCell id="tDFteGGjF2vSCOtB_rUJ-2" value="PI = 3.14&amp;nbsp;&lt;div&gt;AREA = (( PI * B * B ) / 4) * ((2 * A - B) / (2 * A + B))&amp;nbsp;&lt;/div&gt;" style="rounded=1;whiteSpace=wrap;html=1;absoluteArcSize=1;arcSize=14;strokeWidth=2;" vertex="1" parent="WIyWlLk6GJQsqaUBKTNV-1">
          <mxGeometry x="274" y="260" width="280" height="60" as="geometry" />
        </mxCell>
        <mxCell id="tDFteGGjF2vSCOtB_rUJ-3" value="PRINT AREA" style="shape=parallelogram;html=1;strokeWidth=2;perimeter=parallelogramPerimeter;whiteSpace=wrap;rounded=1;arcSize=12;size=0.23;" vertex="1" parent="WIyWlLk6GJQsqaUBKTNV-1">
          <mxGeometry x="336" y="370" width="156" height="60" as="geometry" />
        </mxCell>
        <mxCell id="tDFteGGjF2vSCOtB_rUJ-4" value="END" style="strokeWidth=2;html=1;shape=mxgraph.flowchart.terminator;whiteSpace=wrap;" vertex="1" parent="WIyWlLk6GJQsqaUBKTNV-1">
          <mxGeometry x="364" y="480" width="100" height="60" as="geometry" />
        </mxCell>
        <mxCell id="tDFteGGjF2vSCOtB_rUJ-8" style="edgeStyle=orthogonalEdgeStyle;rounded=0;orthogonalLoop=1;jettySize=auto;html=1;exitX=0.5;exitY=1;exitDx=0;exitDy=0;entryX=0.5;entryY=0;entryDx=0;entryDy=0;entryPerimeter=0;" edge="1" parent="WIyWlLk6GJQsqaUBKTNV-1" source="tDFteGGjF2vSCOtB_rUJ-3" target="tDFteGGjF2vSCOtB_rUJ-4">
          <mxGeometry relative="1" as="geometry" />
        </mxCell>
      </root>
    </mxGraphModel>
  </diagram>
</mxfile>
